<?xml version="1.0" encoding="utf-8"?>
<!-- Generator: Adobe Illustrator 24.2.0, SVG Export Plug-In . SVG Version: 6.00 Build 0)  -->
<svg version="1.1" id="Layer_1" xmlns="http://www.w3.org/2000/svg" xmlns:xlink="http://www.w3.org/1999/xlink" x="0px" y="0px"
	 viewBox="0 0 512 512" style="enable-background:new 0 0 512 512;" xml:space="preserve">
<style type="text/css">
	.st0{fill:#0887FF;}
	.st1{fill:#FFAB40;}
	.st2{fill:#1D4E5F;}
	.st3{enable-background:new    ;}
	.st4{fill:#434343;}
</style>
<g>
	<g>
		<path class="st0" d="M362.3,108.9L198.3,273C162.1,308,109,255,144,218.7L308.1,54.6c15-15,39.3-15,54.2,0
			C377.3,69.6,377.3,93.9,362.3,108.9z"/>
	</g>
	<g>
		<path class="st1" d="M394.2,223.3L313.6,304c-36.2,35-89.3-18-54.2-54.2l80.6-80.6C376.2,134.1,429.3,187.1,394.2,223.3z"/>
	</g>
	<g>
		<path class="st2" d="M248.2,77.7l-80.6,80.6c-36.2,35-89.3-18-54.2-54.2L194,23.5C230.2-11.6,283.3,41.5,248.2,77.7z"/>
	</g>
</g>
<g class="st3">
	<path class="st4" d="M43.1,421.9l0.3,7.5c4.9-5.8,11.6-8.7,20-8.7c9.4,0,15.9,3.6,19.3,10.9c2.2-3.2,5.2-5.9,8.8-7.9
		c3.6-2,7.8-3,12.8-3c14.8,0,22.3,7.8,22.6,23.5v45.2h-11.5v-44.5c0-4.8-1.1-8.4-3.3-10.8c-2.2-2.4-5.9-3.6-11.1-3.6
		c-4.3,0-7.8,1.3-10.7,3.8c-2.8,2.6-4.5,6-4.9,10.3v44.8H73.6v-44.2c0-9.8-4.8-14.7-14.4-14.7c-7.6,0-12.7,3.2-15.5,9.7v49.3H32.1
		v-67.5H43.1z"/>
	<path class="st4" d="M185.8,482.7c-4.5,5.3-11.1,7.9-19.8,7.9c-7.2,0-12.7-2.1-16.4-6.3c-3.8-4.2-5.7-10.4-5.7-18.6v-43.9h11.5
		v43.6c0,10.2,4.2,15.3,12.5,15.3c8.8,0,14.7-3.3,17.6-9.9v-49.1h11.5v67.5h-11L185.8,482.7z"/>
	<path class="st4" d="M227.1,489.4h-11.5v-95.8h11.5V489.4z"/>
	<path class="st4" d="M261.3,405.5v16.3h12.6v8.9h-12.6v41.9c0,2.7,0.6,4.7,1.7,6.1c1.1,1.4,3,2,5.7,2c1.3,0,3.2-0.2,5.5-0.7v9.3
		c-3,0.8-6,1.2-8.9,1.2c-5.2,0-9-1.6-11.7-4.7c-2.6-3.1-3.9-7.5-3.9-13.3v-41.9h-12.3v-8.9h12.3v-16.3H261.3z"/>
	<path class="st4" d="M287.4,404c0-1.9,0.6-3.5,1.7-4.7s2.8-1.9,5.1-1.9c2.2,0,4,0.6,5.1,1.9c1.2,1.3,1.7,2.9,1.7,4.7
		s-0.6,3.4-1.7,4.7c-1.2,1.2-2.9,1.9-5.1,1.9c-2.2,0-3.9-0.6-5.1-1.9S287.4,405.9,287.4,404z M299.9,489.4h-11.5v-67.5h11.5V489.4z"
		/>
	<path class="st4" d="M334,405.5v16.3h12.6v8.9H334v41.9c0,2.7,0.6,4.7,1.7,6.1c1.1,1.4,3,2,5.7,2c1.3,0,3.2-0.2,5.5-0.7v9.3
		c-3,0.8-6,1.2-8.9,1.2c-5.2,0-9-1.6-11.7-4.7s-3.9-7.5-3.9-13.3v-41.9h-12.3v-8.9h12.3v-16.3H334z"/>
	<path class="st4" d="M401.7,482.7c-4.5,5.3-11.1,7.9-19.8,7.9c-7.2,0-12.7-2.1-16.4-6.3c-3.8-4.2-5.7-10.4-5.7-18.6v-43.9h11.5
		v43.6c0,10.2,4.2,15.3,12.5,15.3c8.8,0,14.7-3.3,17.6-9.9v-49.1H413v67.5h-11L401.7,482.7z M366.6,403.8c0-1.9,0.6-3.5,1.7-4.7
		s2.8-1.9,5.1-1.9c2.2,0,4,0.6,5.1,1.9s1.7,2.9,1.7,4.7c0,1.9-0.6,3.4-1.7,4.7c-1.2,1.3-2.9,1.9-5.1,1.9c-2.2,0-3.9-0.6-5.1-1.9
		C367.2,407.3,366.6,405.7,366.6,403.8z M393.4,403.9c0-1.9,0.6-3.5,1.7-4.8c1.1-1.3,2.8-1.9,5.1-1.9c2.2,0,4,0.6,5.1,1.9
		c1.2,1.3,1.7,2.9,1.7,4.8c0,1.9-0.6,3.4-1.7,4.7c-1.2,1.3-2.9,1.9-5.1,1.9c-2.2,0-3.9-0.6-5.1-1.9
		C394,407.4,393.4,405.8,393.4,403.9z"/>
	<path class="st4" d="M427.7,455.1c0-10.4,2.5-18.7,7.4-25c4.9-6.3,11.3-9.5,19.3-9.5c7.9,0,14.2,2.7,18.8,8.1v-35.2h11.5v95.8H474
		l-0.6-7.2c-4.6,5.7-11,8.5-19.3,8.5c-7.8,0-14.2-3.2-19.1-9.6c-4.9-6.4-7.4-14.8-7.4-25.1V455.1z M439.2,456.4
		c0,7.7,1.6,13.6,4.7,18c3.2,4.3,7.5,6.5,13.1,6.5c7.3,0,12.7-3.3,16-9.9v-31c-3.5-6.4-8.8-9.5-15.9-9.5c-5.7,0-10.1,2.2-13.2,6.5
		C440.8,441.3,439.2,447.8,439.2,456.4z"/>
</g>
</svg>
