<?xml version="1.0" encoding="utf-8"?>
<!-- Generator: Adobe Illustrator 24.2.0, SVG Export Plug-In . SVG Version: 6.00 Build 0)  -->
<svg version="1.1" id="Layer_1" xmlns="http://www.w3.org/2000/svg" xmlns:xlink="http://www.w3.org/1999/xlink" x="0px" y="0px"
	 viewBox="0 0 782 203.6" style="enable-background:new 0 0 782 203.6;" xml:space="preserve">
<style type="text/css">
	.st0{fill:#0887FF;}
	.st1{fill:#FFAB40;}
	.st2{fill:#1D4E5F;}
	.st3{enable-background:new    ;}
	.st4{fill:#434343;}
</style>
<path class="st0" d="M28.2,138.8L138.4,28.5c10.1-10.1,26.4-10.1,36.5,0l0,0c10.1,10.1,10.1,26.4,0,36.5L64.6,175.2
	c-10.1,10.1-26.4,10.1-36.5,0l0,0C18.1,165.1,18.1,148.8,28.2,138.8z"/>
<path class="st1" d="M105.7,159.6l54.2-54.2c10.1-10.1,26.4-10.1,36.5,0l0,0c10.1,10.1,10.1,26.4,0,36.5L142.1,196
	c-10.1,10.1-26.4,10.1-36.5,0l0,0C95.6,186,95.6,169.7,105.7,159.6z"/>
<path class="st2" d="M7.5,61.7L61.7,7.6c10.1-10.1,26.4-10.1,36.5,0l0,0c10.1,10.1,10.1,26.4,0,36.5L44,98.2
	c-10.1,10.1-26.4,10.1-36.5,0l0,0C-2.5,88.1-2.5,71.8,7.5,61.7z"/>
<g class="st3">
	<path class="st4" d="M293.8,65.5l0.3,8.1c5.4-6.3,12.6-9.5,21.7-9.5c10.2,0,17.2,3.9,20.9,11.8c2.4-3.5,5.6-6.4,9.5-8.5
		c3.9-2.2,8.5-3.2,13.8-3.2c16,0,24.2,8.5,24.5,25.5v49H372V90.4c0-5.2-1.2-9.1-3.6-11.7c-2.4-2.6-6.4-3.9-12-3.9
		c-4.6,0-8.5,1.4-11.6,4.2c-3.1,2.8-4.8,6.5-5.3,11.2v48.5h-12.6V90.7c0-10.6-5.2-15.9-15.6-15.9c-8.2,0-13.8,3.5-16.8,10.5v53.4
		H282V65.5H293.8z"/>
	<path class="st4" d="M448.5,131.4c-4.9,5.7-12,8.6-21.4,8.6c-7.8,0-13.7-2.3-17.8-6.8c-4.1-4.5-6.1-11.2-6.2-20.1V65.5h12.5v47.2
		c0,11.1,4.5,16.6,13.5,16.6c9.5,0,15.9-3.6,19.1-10.7V65.5h12.5v73.1h-11.9L448.5,131.4z"/>
	<path class="st4" d="M493.2,138.6h-12.5V34.8h12.5V138.6z"/>
	<path class="st4" d="M530.1,47.8v17.7h13.6v9.7h-13.6v45.4c0,2.9,0.6,5.1,1.8,6.6c1.2,1.5,3.3,2.2,6.2,2.2c1.4,0,3.4-0.3,5.9-0.8
		v10.1c-3.3,0.9-6.5,1.3-9.6,1.3c-5.6,0-9.8-1.7-12.6-5.1c-2.8-3.4-4.3-8.2-4.3-14.4V75.2h-13.3v-9.7h13.3V47.8H530.1z"/>
	<path class="st4" d="M558.4,46.1c0-2,0.6-3.7,1.9-5.1c1.2-1.4,3.1-2.1,5.5-2.1s4.3,0.7,5.5,2.1c1.3,1.4,1.9,3.1,1.9,5.1
		s-0.6,3.7-1.9,5.1c-1.3,1.4-3.1,2-5.5,2s-4.3-0.7-5.5-2C559.1,49.8,558.4,48.1,558.4,46.1z M572,138.6h-12.5V65.5H572V138.6z"/>
	<path class="st4" d="M608.9,47.8v17.7h13.6v9.7h-13.6v45.4c0,2.9,0.6,5.1,1.8,6.6c1.2,1.5,3.3,2.2,6.2,2.2c1.4,0,3.4-0.3,5.9-0.8
		v10.1c-3.3,0.9-6.5,1.3-9.6,1.3c-5.6,0-9.8-1.7-12.6-5.1c-2.8-3.4-4.3-8.2-4.3-14.4V75.2h-13.3v-9.7h13.3V47.8H608.9z"/>
	<path class="st4" d="M682.3,131.4c-4.9,5.7-12,8.6-21.4,8.6c-7.8,0-13.7-2.3-17.8-6.8s-6.1-11.2-6.2-20.1V65.5h12.5v47.2
		c0,11.1,4.5,16.6,13.5,16.6c9.5,0,15.9-3.6,19.1-10.7V65.5h12.5v73.1h-11.9L682.3,131.4z M644.2,46c0-2,0.6-3.7,1.9-5.1
		c1.2-1.4,3.1-2.1,5.5-2.1c2.4,0,4.3,0.7,5.5,2.1c1.3,1.4,1.9,3.1,1.9,5.1c0,2-0.6,3.7-1.9,5.1s-3.1,2-5.5,2c-2.4,0-4.3-0.7-5.5-2
		C644.9,49.7,644.2,48,644.2,46z M673.3,46.1c0-2,0.6-3.8,1.9-5.2c1.2-1.4,3.1-2.1,5.5-2.1c2.4,0,4.3,0.7,5.5,2.1
		c1.3,1.4,1.9,3.1,1.9,5.2s-0.6,3.7-1.9,5.1c-1.3,1.4-3.1,2-5.5,2c-2.4,0-4.3-0.7-5.5-2C673.9,49.8,673.3,48.1,673.3,46.1z"/>
	<path class="st4" d="M710.4,101.5c0-11.2,2.7-20.2,8-27.1c5.3-6.8,12.3-10.2,20.9-10.2c8.6,0,15.3,2.9,20.3,8.8V34.8h12.5v103.8
		h-11.5l-0.6-7.8c-5,6.1-12,9.2-20.9,9.2c-8.5,0-15.4-3.5-20.7-10.4c-5.3-6.9-8-16-8-27.2V101.5z M722.9,102.9
		c0,8.3,1.7,14.8,5.1,19.5c3.4,4.7,8.2,7,14.2,7c7.9,0,13.7-3.6,17.4-10.7V85.1c-3.7-6.9-9.5-10.3-17.2-10.3
		c-6.1,0-10.9,2.4-14.3,7.1C724.6,86.6,722.9,93.6,722.9,102.9z"/>
</g>
</svg>
