<svg id="multitudSplash" data-name="Layer 1" xmlns="http://www.w3.org/2000/svg" viewBox="0 0 443.08 474">
  <defs>
    <style>.multitudSplashcls-1{fill:#0887ff;}.multitudSplashcls-2{fill:#ffab40;}.multitudSplashcls-3{fill:#1d4e5f;}.multitudSplashcls-4{fill:#ccc;}.multitudSplashcls-5{fill:#c7ecff;}</style>
  </defs>
  <rect class="multitudSplashcls-1" x="107.91" y="308.99" width="292.89" height="72.78" rx="36.39" transform="translate(-204.42 266.01) rotate(-45)"/>
  <rect class="multitudSplashcls-2" x="233.68" y="377.98" width="180.95" height="72.78" rx="36.39" transform="translate(-232.75 335.58) rotate(-45)"/>
  <rect class="multitudSplashcls-3" x="95.18" y="239.83" width="180.95" height="72.78" rx="36.39" transform="translate(-175.63 197.18) rotate(-45)"/>
  <rect class="multitudSplashcls-4" x="205.45" y="5.21" width="13.89" height="83.36"/>
  <rect class="multitudSplashcls-4" x="346.93" y="68.44" width="14.28" height="54.7" transform="translate(93 -207.82) rotate(36.75)"/>
  <rect class="multitudSplashcls-4" x="141.4" y="86.71" width="18.44" height="19.11" transform="translate(-62.31 94.96) rotate(-36.98)"/>
  <rect class="multitudSplashcls-4" x="433.9" y="121.02" width="13.31" height="78.27" transform="translate(324.28 -316.45) rotate(60)"/>
  <rect class="multitudSplashcls-4" x="58.05" y="131.34" width="12.55" height="58.32" transform="translate(202.27 135.73) rotate(108.6)"/>
  <polygon class="multitudSplashcls-5" points="177.82 36.62 157.58 33.98 180.46 56.86 177.82 36.62"/>
  <polygon class="multitudSplashcls-5" points="159.9 74.28 157.29 94.25 179.87 71.67 159.9 74.28"/>
  <polygon class="multitudSplashcls-5" points="270.04 11.72 261.02 0 261.02 23.44 270.04 11.72"/>
  <polygon class="multitudSplashcls-5" points="280.4 58.06 258.27 55.17 283.29 80.19 280.4 58.06"/>
  <polygon class="multitudSplashcls-5" points="396.28 62.36 377.77 67.36 405.87 78.97 396.28 62.36"/>
  <polygon class="multitudSplashcls-5" points="376.5 118.66 395.87 101.74 355.18 104.28 376.5 118.66"/>
  <polygon class="multitudSplashcls-5" points="44.95 106.07 56.5 94.51 30.81 97.86 44.95 106.07"/>
  <polygon class="multitudSplashcls-5" points="67.73 112.6 69.41 134.28 88.26 105.41 67.73 112.6"/>
  <polygon class="multitudSplashcls-5" points="430.15 172.27 411.09 169.79 432.64 191.34 430.15 172.27"/>
  <polygon class="multitudSplashcls-5" points="10.47 176.13 14.62 197.62 30.18 166.62 10.47 176.13"/>
  </svg>